<svg xmlns="http://www.w3.org/2000/svg" viewBox="0 0 737 143" width="737" height="143" role="img" aria-label="Repository activity heatmap"><text x="36" y="12" font-size="10" fill="#57606a" font-family="-apple-system,BlinkMacSystemFont,Segoe UI,sans-serif">Jul</text><text x="62" y="12" font-size="10" fill="#57606a" font-family="-apple-system,BlinkMacSystemFont,Segoe UI,sans-serif">Aug</text><text x="127" y="12" font-size="10" fill="#57606a" font-family="-apple-system,BlinkMacSystemFont,Segoe UI,sans-serif">Sep</text><text x="179" y="12" font-size="10" fill="#57606a" font-family="-apple-system,BlinkMacSystemFont,Segoe UI,sans-serif">Oct</text><text x="231" y="12" font-size="10" fill="#57606a" font-family="-apple-system,BlinkMacSystemFont,Segoe UI,sans-serif">Nov</text><text x="296" y="12" font-size="10" fill="#57606a" font-family="-apple-system,BlinkMacSystemFont,Segoe UI,sans-serif">Dec</text><text x="348" y="12" font-size="10" fill="#57606a" font-family="-apple-system,BlinkMacSystemFont,Segoe UI,sans-serif">Jan</text><text x="400" y="12" font-size="10" fill="#57606a" font-family="-apple-system,BlinkMacSystemFont,Segoe UI,sans-serif">Feb</text><text x="452" y="12" font-size="10" fill="#57606a" font-family="-apple-system,BlinkMacSystemFont,Segoe UI,sans-serif">Mar</text><text x="517" y="12" font-size="10" fill="#57606a" font-family="-apple-system,BlinkMacSystemFont,Segoe UI,sans-serif">Apr</text><text x="569" y="12" font-size="10" fill="#57606a" font-family="-apple-system,BlinkMacSystemFont,Segoe UI,sans-serif">May</text><text x="634" y="12" font-size="10" fill="#57606a" font-family="-apple-system,BlinkMacSystemFont,Segoe UI,sans-serif">Jun</text><text x="686" y="12" font-size="10" fill="#57606a" font-family="-apple-system,BlinkMacSystemFont,Segoe UI,sans-serif">Jul</text><text x="0" y="44" font-size="10" fill="#57606a" font-family="-apple-system,BlinkMacSystemFont,Segoe UI,sans-serif">Mon</text><text x="0" y="70" font-size="10" fill="#57606a" font-family="-apple-system,BlinkMacSystemFont,Segoe UI,sans-serif">Wed</text><text x="0" y="96" font-size="10" fill="#57606a" font-family="-apple-system,BlinkMacSystemFont,Segoe UI,sans-serif">Fri</text><text x="625" y="131" font-size="10" fill="#57606a" font-family="-apple-system,BlinkMacSystemFont,Segoe UI,sans-serif">Less</text><rect x="653" y="122" width="10" height="10" rx="2" fill="#ebedf0" /><rect x="666" y="122" width="10" height="10" rx="2" fill="#9be9a8" /><rect x="679" y="122" width="10" height="10" rx="2" fill="#40c463" /><rect x="692" y="122" width="10" height="10" rx="2" fill="#30a14e" /><rect x="705" y="122" width="10" height="10" rx="2" fill="#216e39" /><text x="721" y="131" font-size="10" fill="#57606a" font-family="-apple-system,BlinkMacSystemFont,Segoe UI,sans-serif">More</text><rect x="36" y="22" width="10" height="10" rx="2" fill="#ebedf0"><title>2025-07-20</title></rect><rect x="36" y="35" width="10" height="10" rx="2" fill="#ebedf0"><title>2025-07-21</title></rect><rect x="36" y="48" width="10" height="10" rx="2" fill="#ebedf0"><title>2025-07-22</title></rect><rect x="36" y="61" width="10" height="10" rx="2" fill="#ebedf0"><title>2025-07-23</title></rect><rect x="36" y="74" width="10" height="10" rx="2" fill="#ebedf0"><title>2025-07-24</title></rect><rect x="36" y="87" width="10" height="10" rx="2" fill="#ebedf0"><title>2025-07-25</title></rect><rect x="36" y="100" width="10" height="10" rx="2" fill="#ebedf0"><title>2025-07-26</title></rect><rect x="49" y="22" width="10" height="10" rx="2" fill="#ebedf0"><title>2025-07-27</title></rect><rect x="49" y="35" width="10" height="10" rx="2" fill="#ebedf0"><title>2025-07-28</title></rect><rect x="49" y="48" width="10" height="10" rx="2" fill="#ebedf0"><title>2025-07-29</title></rect><rect x="49" y="61" width="10" height="10" rx="2" fill="#ebedf0"><title>2025-07-30</title></rect><rect x="49" y="74" width="10" height="10" rx="2" fill="#ebedf0"><title>2025-07-31</title></rect><rect x="49" y="87" width="10" height="10" rx="2" fill="#ebedf0"><title>2025-08-01</title></rect><rect x="49" y="100" width="10" height="10" rx="2" fill="#ebedf0"><title>2025-08-02</title></rect><rect x="62" y="22" width="10" height="10" rx="2" fill="#ebedf0"><title>2025-08-03</title></rect><rect x="62" y="35" width="10" height="10" rx="2" fill="#ebedf0"><title>2025-08-04</title></rect><rect x="62" y="48" width="10" height="10" rx="2" fill="#ebedf0"><title>2025-08-05</title></rect><rect x="62" y="61" width="10" height="10" rx="2" fill="#ebedf0"><title>2025-08-06</title></rect><rect x="62" y="74" width="10" height="10" rx="2" fill="#ebedf0"><title>2025-08-07</title></rect><rect x="62" y="87" width="10" height="10" rx="2" fill="#ebedf0"><title>2025-08-08</title></rect><rect x="62" y="100" width="10" height="10" rx="2" fill="#ebedf0"><title>2025-08-09</title></rect><rect x="75" y="22" width="10" height="10" rx="2" fill="#ebedf0"><title>2025-08-10</title></rect><rect x="75" y="35" width="10" height="10" rx="2" fill="#ebedf0"><title>2025-08-11</title></rect><rect x="75" y="48" width="10" height="10" rx="2" fill="#ebedf0"><title>2025-08-12</title></rect><rect x="75" y="61" width="10" height="10" rx="2" fill="#ebedf0"><title>2025-08-13</title></rect><rect x="75" y="74" width="10" height="10" rx="2" fill="#ebedf0"><title>2025-08-14</title></rect><rect x="75" y="87" width="10" height="10" rx="2" fill="#ebedf0"><title>2025-08-15</title></rect><rect x="75" y="100" width="10" height="10" rx="2" fill="#ebedf0"><title>2025-08-16</title></rect><rect x="88" y="22" width="10" height="10" rx="2" fill="#ebedf0"><title>2025-08-17</title></rect><rect x="88" y="35" width="10" height="10" rx="2" fill="#ebedf0"><title>2025-08-18</title></rect><rect x="88" y="48" width="10" height="10" rx="2" fill="#ebedf0"><title>2025-08-19</title></rect><rect x="88" y="61" width="10" height="10" rx="2" fill="#ebedf0"><title>2025-08-20</title></rect><rect x="88" y="74" width="10" height="10" rx="2" fill="#ebedf0"><title>2025-08-21</title></rect><rect x="88" y="87" width="10" height="10" rx="2" fill="#ebedf0"><title>2025-08-22</title></rect><rect x="88" y="100" width="10" height="10" rx="2" fill="#ebedf0"><title>2025-08-23</title></rect><rect x="101" y="22" width="10" height="10" rx="2" fill="#ebedf0"><title>2025-08-24</title></rect><rect x="101" y="35" width="10" height="10" rx="2" fill="#ebedf0"><title>2025-08-25</title></rect><rect x="101" y="48" width="10" height="10" rx="2" fill="#ebedf0"><title>2025-08-26</title></rect><rect x="101" y="61" width="10" height="10" rx="2" fill="#ebedf0"><title>2025-08-27</title></rect><rect x="101" y="74" width="10" height="10" rx="2" fill="#ebedf0"><title>2025-08-28</title></rect><rect x="101" y="87" width="10" height="10" rx="2" fill="#ebedf0"><title>2025-08-29</title></rect><rect x="101" y="100" width="10" height="10" rx="2" fill="#ebedf0"><title>2025-08-30</title></rect><rect x="114" y="22" width="10" height="10" rx="2" fill="#ebedf0"><title>2025-08-31</title></rect><rect x="114" y="35" width="10" height="10" rx="2" fill="#ebedf0"><title>2025-09-01</title></rect><rect x="114" y="48" width="10" height="10" rx="2" fill="#ebedf0"><title>2025-09-02</title></rect><rect x="114" y="61" width="10" height="10" rx="2" fill="#ebedf0"><title>2025-09-03</title></rect><rect x="114" y="74" width="10" height="10" rx="2" fill="#ebedf0"><title>2025-09-04</title></rect><rect x="114" y="87" width="10" height="10" rx="2" fill="#ebedf0"><title>2025-09-05</title></rect><rect x="114" y="100" width="10" height="10" rx="2" fill="#ebedf0"><title>2025-09-06</title></rect><rect x="127" y="22" width="10" height="10" rx="2" fill="#ebedf0"><title>2025-09-07</title></rect><rect x="127" y="35" width="10" height="10" rx="2" fill="#ebedf0"><title>2025-09-08</title></rect><rect x="127" y="48" width="10" height="10" rx="2" fill="#ebedf0"><title>2025-09-09</title></rect><rect x="127" y="61" width="10" height="10" rx="2" fill="#ebedf0"><title>2025-09-10</title></rect><rect x="127" y="74" width="10" height="10" rx="2" fill="#ebedf0"><title>2025-09-11</title></rect><rect x="127" y="87" width="10" height="10" rx="2" fill="#ebedf0"><title>2025-09-12</title></rect><rect x="127" y="100" width="10" height="10" rx="2" fill="#ebedf0"><title>2025-09-13</title></rect><rect x="140" y="22" width="10" height="10" rx="2" fill="#ebedf0"><title>2025-09-14</title></rect><rect x="140" y="35" width="10" height="10" rx="2" fill="#ebedf0"><title>2025-09-15</title></rect><rect x="140" y="48" width="10" height="10" rx="2" fill="#ebedf0"><title>2025-09-16</title></rect><rect x="140" y="61" width="10" height="10" rx="2" fill="#ebedf0"><title>2025-09-17</title></rect><rect x="140" y="74" width="10" height="10" rx="2" fill="#ebedf0"><title>2025-09-18</title></rect><rect x="140" y="87" width="10" height="10" rx="2" fill="#ebedf0"><title>2025-09-19</title></rect><rect x="140" y="100" width="10" height="10" rx="2" fill="#ebedf0"><title>2025-09-20</title></rect><rect x="153" y="22" width="10" height="10" rx="2" fill="#ebedf0"><title>2025-09-21</title></rect><rect x="153" y="35" width="10" height="10" rx="2" fill="#ebedf0"><title>2025-09-22</title></rect><rect x="153" y="48" width="10" height="10" rx="2" fill="#ebedf0"><title>2025-09-23</title></rect><rect x="153" y="61" width="10" height="10" rx="2" fill="#ebedf0"><title>2025-09-24</title></rect><rect x="153" y="74" width="10" height="10" rx="2" fill="#ebedf0"><title>2025-09-25</title></rect><rect x="153" y="87" width="10" height="10" rx="2" fill="#ebedf0"><title>2025-09-26</title></rect><rect x="153" y="100" width="10" height="10" rx="2" fill="#ebedf0"><title>2025-09-27</title></rect><rect x="166" y="22" width="10" height="10" rx="2" fill="#ebedf0"><title>2025-09-28</title></rect><rect x="166" y="35" width="10" height="10" rx="2" fill="#ebedf0"><title>2025-09-29</title></rect><rect x="166" y="48" width="10" height="10" rx="2" fill="#ebedf0"><title>2025-09-30</title></rect><rect x="166" y="61" width="10" height="10" rx="2" fill="#ebedf0"><title>2025-10-01</title></rect><rect x="166" y="74" width="10" height="10" rx="2" fill="#ebedf0"><title>2025-10-02</title></rect><rect x="166" y="87" width="10" height="10" rx="2" fill="#ebedf0"><title>2025-10-03</title></rect><rect x="166" y="100" width="10" height="10" rx="2" fill="#ebedf0"><title>2025-10-04</title></rect><rect x="179" y="22" width="10" height="10" rx="2" fill="#ebedf0"><title>2025-10-05</title></rect><rect x="179" y="35" width="10" height="10" rx="2" fill="#ebedf0"><title>2025-10-06</title></rect><rect x="179" y="48" width="10" height="10" rx="2" fill="#ebedf0"><title>2025-10-07</title></rect><rect x="179" y="61" width="10" height="10" rx="2" fill="#ebedf0"><title>2025-10-08</title></rect><rect x="179" y="74" width="10" height="10" rx="2" fill="#ebedf0"><title>2025-10-09</title></rect><rect x="179" y="87" width="10" height="10" rx="2" fill="#ebedf0"><title>2025-10-10</title></rect><rect x="179" y="100" width="10" height="10" rx="2" fill="#ebedf0"><title>2025-10-11</title></rect><rect x="192" y="22" width="10" height="10" rx="2" fill="#ebedf0"><title>2025-10-12</title></rect><rect x="192" y="35" width="10" height="10" rx="2" fill="#ebedf0"><title>2025-10-13</title></rect><rect x="192" y="48" width="10" height="10" rx="2" fill="#ebedf0"><title>2025-10-14</title></rect><rect x="192" y="61" width="10" height="10" rx="2" fill="#ebedf0"><title>2025-10-15</title></rect><rect x="192" y="74" width="10" height="10" rx="2" fill="#ebedf0"><title>2025-10-16</title></rect><rect x="192" y="87" width="10" height="10" rx="2" fill="#ebedf0"><title>2025-10-17</title></rect><rect x="192" y="100" width="10" height="10" rx="2" fill="#ebedf0"><title>2025-10-18</title></rect><rect x="205" y="22" width="10" height="10" rx="2" fill="#ebedf0"><title>2025-10-19</title></rect><rect x="205" y="35" width="10" height="10" rx="2" fill="#ebedf0"><title>2025-10-20</title></rect><rect x="205" y="48" width="10" height="10" rx="2" fill="#ebedf0"><title>2025-10-21</title></rect><rect x="205" y="61" width="10" height="10" rx="2" fill="#ebedf0"><title>2025-10-22</title></rect><rect x="205" y="74" width="10" height="10" rx="2" fill="#ebedf0"><title>2025-10-23</title></rect><rect x="205" y="87" width="10" height="10" rx="2" fill="#ebedf0"><title>2025-10-24</title></rect><rect x="205" y="100" width="10" height="10" rx="2" fill="#ebedf0"><title>2025-10-25</title></rect><rect x="218" y="22" width="10" height="10" rx="2" fill="#ebedf0"><title>2025-10-26</title></rect><rect x="218" y="35" width="10" height="10" rx="2" fill="#ebedf0"><title>2025-10-27</title></rect><rect x="218" y="48" width="10" height="10" rx="2" fill="#ebedf0"><title>2025-10-28</title></rect><rect x="218" y="61" width="10" height="10" rx="2" fill="#ebedf0"><title>2025-10-29</title></rect><rect x="218" y="74" width="10" height="10" rx="2" fill="#ebedf0"><title>2025-10-30</title></rect><rect x="218" y="87" width="10" height="10" rx="2" fill="#ebedf0"><title>2025-10-31</title></rect><rect x="218" y="100" width="10" height="10" rx="2" fill="#ebedf0"><title>2025-11-01</title></rect><rect x="231" y="22" width="10" height="10" rx="2" fill="#ebedf0"><title>2025-11-02</title></rect><rect x="231" y="35" width="10" height="10" rx="2" fill="#ebedf0"><title>2025-11-03</title></rect><rect x="231" y="48" width="10" height="10" rx="2" fill="#ebedf0"><title>2025-11-04</title></rect><rect x="231" y="61" width="10" height="10" rx="2" fill="#ebedf0"><title>2025-11-05</title></rect><rect x="231" y="74" width="10" height="10" rx="2" fill="#ebedf0"><title>2025-11-06</title></rect><rect x="231" y="87" width="10" height="10" rx="2" fill="#ebedf0"><title>2025-11-07</title></rect><rect x="231" y="100" width="10" height="10" rx="2" fill="#ebedf0"><title>2025-11-08</title></rect><rect x="244" y="22" width="10" height="10" rx="2" fill="#ebedf0"><title>2025-11-09</title></rect><rect x="244" y="35" width="10" height="10" rx="2" fill="#ebedf0"><title>2025-11-10</title></rect><rect x="244" y="48" width="10" height="10" rx="2" fill="#ebedf0"><title>2025-11-11</title></rect><rect x="244" y="61" width="10" height="10" rx="2" fill="#ebedf0"><title>2025-11-12</title></rect><rect x="244" y="74" width="10" height="10" rx="2" fill="#ebedf0"><title>2025-11-13</title></rect><rect x="244" y="87" width="10" height="10" rx="2" fill="#ebedf0"><title>2025-11-14</title></rect><rect x="244" y="100" width="10" height="10" rx="2" fill="#ebedf0"><title>2025-11-15</title></rect><rect x="257" y="22" width="10" height="10" rx="2" fill="#ebedf0"><title>2025-11-16</title></rect><rect x="257" y="35" width="10" height="10" rx="2" fill="#ebedf0"><title>2025-11-17</title></rect><rect x="257" y="48" width="10" height="10" rx="2" fill="#ebedf0"><title>2025-11-18</title></rect><rect x="257" y="61" width="10" height="10" rx="2" fill="#ebedf0"><title>2025-11-19</title></rect><rect x="257" y="74" width="10" height="10" rx="2" fill="#ebedf0"><title>2025-11-20</title></rect><rect x="257" y="87" width="10" height="10" rx="2" fill="#ebedf0"><title>2025-11-21</title></rect><rect x="257" y="100" width="10" height="10" rx="2" fill="#ebedf0"><title>2025-11-22</title></rect><rect x="270" y="22" width="10" height="10" rx="2" fill="#ebedf0"><title>2025-11-23</title></rect><rect x="270" y="35" width="10" height="10" rx="2" fill="#ebedf0"><title>2025-11-24</title></rect><rect x="270" y="48" width="10" height="10" rx="2" fill="#ebedf0"><title>2025-11-25</title></rect><rect x="270" y="61" width="10" height="10" rx="2" fill="#ebedf0"><title>2025-11-26</title></rect><rect x="270" y="74" width="10" height="10" rx="2" fill="#ebedf0"><title>2025-11-27</title></rect><rect x="270" y="87" width="10" height="10" rx="2" fill="#ebedf0"><title>2025-11-28</title></rect><rect x="270" y="100" width="10" height="10" rx="2" fill="#ebedf0"><title>2025-11-29</title></rect><rect x="283" y="22" width="10" height="10" rx="2" fill="#ebedf0"><title>2025-11-30</title></rect><rect x="283" y="35" width="10" height="10" rx="2" fill="#ebedf0"><title>2025-12-01</title></rect><rect x="283" y="48" width="10" height="10" rx="2" fill="#ebedf0"><title>2025-12-02</title></rect><rect x="283" y="61" width="10" height="10" rx="2" fill="#ebedf0"><title>2025-12-03</title></rect><rect x="283" y="74" width="10" height="10" rx="2" fill="#ebedf0"><title>2025-12-04</title></rect><rect x="283" y="87" width="10" height="10" rx="2" fill="#ebedf0"><title>2025-12-05</title></rect><rect x="283" y="100" width="10" height="10" rx="2" fill="#ebedf0"><title>2025-12-06</title></rect><rect x="296" y="22" width="10" height="10" rx="2" fill="#ebedf0"><title>2025-12-07</title></rect><rect x="296" y="35" width="10" height="10" rx="2" fill="#ebedf0"><title>2025-12-08</title></rect><rect x="296" y="48" width="10" height="10" rx="2" fill="#ebedf0"><title>2025-12-09</title></rect><rect x="296" y="61" width="10" height="10" rx="2" fill="#ebedf0"><title>2025-12-10</title></rect><rect x="296" y="74" width="10" height="10" rx="2" fill="#ebedf0"><title>2025-12-11</title></rect><rect x="296" y="87" width="10" height="10" rx="2" fill="#ebedf0"><title>2025-12-12</title></rect><rect x="296" y="100" width="10" height="10" rx="2" fill="#ebedf0"><title>2025-12-13</title></rect><rect x="309" y="22" width="10" height="10" rx="2" fill="#ebedf0"><title>2025-12-14</title></rect><rect x="309" y="35" width="10" height="10" rx="2" fill="#ebedf0"><title>2025-12-15</title></rect><rect x="309" y="48" width="10" height="10" rx="2" fill="#ebedf0"><title>2025-12-16</title></rect><rect x="309" y="61" width="10" height="10" rx="2" fill="#ebedf0"><title>2025-12-17</title></rect><rect x="309" y="74" width="10" height="10" rx="2" fill="#ebedf0"><title>2025-12-18</title></rect><rect x="309" y="87" width="10" height="10" rx="2" fill="#ebedf0"><title>2025-12-19</title></rect><rect x="309" y="100" width="10" height="10" rx="2" fill="#ebedf0"><title>2025-12-20</title></rect><rect x="322" y="22" width="10" height="10" rx="2" fill="#ebedf0"><title>2025-12-21</title></rect><rect x="322" y="35" width="10" height="10" rx="2" fill="#ebedf0"><title>2025-12-22</title></rect><rect x="322" y="48" width="10" height="10" rx="2" fill="#ebedf0"><title>2025-12-23</title></rect><rect x="322" y="61" width="10" height="10" rx="2" fill="#ebedf0"><title>2025-12-24</title></rect><rect x="322" y="74" width="10" height="10" rx="2" fill="#ebedf0"><title>2025-12-25</title></rect><rect x="322" y="87" width="10" height="10" rx="2" fill="#ebedf0"><title>2025-12-26</title></rect><rect x="322" y="100" width="10" height="10" rx="2" fill="#ebedf0"><title>2025-12-27</title></rect><rect x="335" y="22" width="10" height="10" rx="2" fill="#ebedf0"><title>2025-12-28</title></rect><rect x="335" y="35" width="10" height="10" rx="2" fill="#ebedf0"><title>2025-12-29</title></rect><rect x="335" y="48" width="10" height="10" rx="2" fill="#ebedf0"><title>2025-12-30</title></rect><rect x="335" y="61" width="10" height="10" rx="2" fill="#ebedf0"><title>2025-12-31</title></rect><rect x="335" y="74" width="10" height="10" rx="2" fill="#ebedf0"><title>2026-01-01</title></rect><rect x="335" y="87" width="10" height="10" rx="2" fill="#ebedf0"><title>2026-01-02</title></rect><rect x="335" y="100" width="10" height="10" rx="2" fill="#ebedf0"><title>2026-01-03</title></rect><rect x="348" y="22" width="10" height="10" rx="2" fill="#ebedf0"><title>2026-01-04</title></rect><rect x="348" y="35" width="10" height="10" rx="2" fill="#ebedf0"><title>2026-01-05</title></rect><rect x="348" y="48" width="10" height="10" rx="2" fill="#ebedf0"><title>2026-01-06</title></rect><rect x="348" y="61" width="10" height="10" rx="2" fill="#ebedf0"><title>2026-01-07</title></rect><rect x="348" y="74" width="10" height="10" rx="2" fill="#ebedf0"><title>2026-01-08</title></rect><rect x="348" y="87" width="10" height="10" rx="2" fill="#ebedf0"><title>2026-01-09</title></rect><rect x="348" y="100" width="10" height="10" rx="2" fill="#ebedf0"><title>2026-01-10</title></rect><rect x="361" y="22" width="10" height="10" rx="2" fill="#ebedf0"><title>2026-01-11</title></rect><rect x="361" y="35" width="10" height="10" rx="2" fill="#ebedf0"><title>2026-01-12</title></rect><rect x="361" y="48" width="10" height="10" rx="2" fill="#ebedf0"><title>2026-01-13</title></rect><rect x="361" y="61" width="10" height="10" rx="2" fill="#ebedf0"><title>2026-01-14</title></rect><rect x="361" y="74" width="10" height="10" rx="2" fill="#ebedf0"><title>2026-01-15</title></rect><rect x="361" y="87" width="10" height="10" rx="2" fill="#ebedf0"><title>2026-01-16</title></rect><rect x="361" y="100" width="10" height="10" rx="2" fill="#ebedf0"><title>2026-01-17</title></rect><rect x="374" y="22" width="10" height="10" rx="2" fill="#ebedf0"><title>2026-01-18</title></rect><rect x="374" y="35" width="10" height="10" rx="2" fill="#ebedf0"><title>2026-01-19</title></rect><rect x="374" y="48" width="10" height="10" rx="2" fill="#ebedf0"><title>2026-01-20</title></rect><rect x="374" y="61" width="10" height="10" rx="2" fill="#ebedf0"><title>2026-01-21</title></rect><rect x="374" y="74" width="10" height="10" rx="2" fill="#ebedf0"><title>2026-01-22</title></rect><rect x="374" y="87" width="10" height="10" rx="2" fill="#ebedf0"><title>2026-01-23</title></rect><rect x="374" y="100" width="10" height="10" rx="2" fill="#ebedf0"><title>2026-01-24</title></rect><rect x="387" y="22" width="10" height="10" rx="2" fill="#ebedf0"><title>2026-01-25</title></rect><rect x="387" y="35" width="10" height="10" rx="2" fill="#ebedf0"><title>2026-01-26</title></rect><rect x="387" y="48" width="10" height="10" rx="2" fill="#ebedf0"><title>2026-01-27</title></rect><rect x="387" y="61" width="10" height="10" rx="2" fill="#ebedf0"><title>2026-01-28</title></rect><rect x="387" y="74" width="10" height="10" rx="2" fill="#ebedf0"><title>2026-01-29</title></rect><rect x="387" y="87" width="10" height="10" rx="2" fill="#ebedf0"><title>2026-01-30</title></rect><rect x="387" y="100" width="10" height="10" rx="2" fill="#ebedf0"><title>2026-01-31</title></rect><rect x="400" y="22" width="10" height="10" rx="2" fill="#ebedf0"><title>2026-02-01</title></rect><rect x="400" y="35" width="10" height="10" rx="2" fill="#ebedf0"><title>2026-02-02</title></rect><rect x="400" y="48" width="10" height="10" rx="2" fill="#ebedf0"><title>2026-02-03</title></rect><rect x="400" y="61" width="10" height="10" rx="2" fill="#ebedf0"><title>2026-02-04</title></rect><rect x="400" y="74" width="10" height="10" rx="2" fill="#ebedf0"><title>2026-02-05</title></rect><rect x="400" y="87" width="10" height="10" rx="2" fill="#ebedf0"><title>2026-02-06</title></rect><rect x="400" y="100" width="10" height="10" rx="2" fill="#ebedf0"><title>2026-02-07</title></rect><rect x="413" y="22" width="10" height="10" rx="2" fill="#ebedf0"><title>2026-02-08</title></rect><rect x="413" y="35" width="10" height="10" rx="2" fill="#ebedf0"><title>2026-02-09</title></rect><rect x="413" y="48" width="10" height="10" rx="2" fill="#ebedf0"><title>2026-02-10</title></rect><rect x="413" y="61" width="10" height="10" rx="2" fill="#ebedf0"><title>2026-02-11</title></rect><rect x="413" y="74" width="10" height="10" rx="2" fill="#ebedf0"><title>2026-02-12</title></rect><rect x="413" y="87" width="10" height="10" rx="2" fill="#ebedf0"><title>2026-02-13</title></rect><rect x="413" y="100" width="10" height="10" rx="2" fill="#ebedf0"><title>2026-02-14</title></rect><rect x="426" y="22" width="10" height="10" rx="2" fill="#ebedf0"><title>2026-02-15</title></rect><rect x="426" y="35" width="10" height="10" rx="2" fill="#ebedf0"><title>2026-02-16</title></rect><rect x="426" y="48" width="10" height="10" rx="2" fill="#ebedf0"><title>2026-02-17</title></rect><rect x="426" y="61" width="10" height="10" rx="2" fill="#ebedf0"><title>2026-02-18</title></rect><rect x="426" y="74" width="10" height="10" rx="2" fill="#ebedf0"><title>2026-02-19</title></rect><rect x="426" y="87" width="10" height="10" rx="2" fill="#ebedf0"><title>2026-02-20</title></rect><rect x="426" y="100" width="10" height="10" rx="2" fill="#ebedf0"><title>2026-02-21</title></rect><rect x="439" y="22" width="10" height="10" rx="2" fill="#ebedf0"><title>2026-02-22</title></rect><rect x="439" y="35" width="10" height="10" rx="2" fill="#ebedf0"><title>2026-02-23</title></rect><rect x="439" y="48" width="10" height="10" rx="2" fill="#ebedf0"><title>2026-02-24</title></rect><rect x="439" y="61" width="10" height="10" rx="2" fill="#ebedf0"><title>2026-02-25</title></rect><rect x="439" y="74" width="10" height="10" rx="2" fill="#ebedf0"><title>2026-02-26</title></rect><rect x="439" y="87" width="10" height="10" rx="2" fill="#ebedf0"><title>2026-02-27</title></rect><rect x="439" y="100" width="10" height="10" rx="2" fill="#ebedf0"><title>2026-02-28</title></rect><rect x="452" y="22" width="10" height="10" rx="2" fill="#ebedf0"><title>2026-03-01</title></rect><rect x="452" y="35" width="10" height="10" rx="2" fill="#ebedf0"><title>2026-03-02</title></rect><rect x="452" y="48" width="10" height="10" rx="2" fill="#ebedf0"><title>2026-03-03</title></rect><rect x="452" y="61" width="10" height="10" rx="2" fill="#ebedf0"><title>2026-03-04</title></rect><rect x="452" y="74" width="10" height="10" rx="2" fill="#ebedf0"><title>2026-03-05</title></rect><rect x="452" y="87" width="10" height="10" rx="2" fill="#ebedf0"><title>2026-03-06</title></rect><rect x="452" y="100" width="10" height="10" rx="2" fill="#ebedf0"><title>2026-03-07</title></rect><rect x="465" y="22" width="10" height="10" rx="2" fill="#ebedf0"><title>2026-03-08</title></rect><rect x="465" y="35" width="10" height="10" rx="2" fill="#ebedf0"><title>2026-03-09</title></rect><rect x="465" y="48" width="10" height="10" rx="2" fill="#ebedf0"><title>2026-03-10</title></rect><rect x="465" y="61" width="10" height="10" rx="2" fill="#ebedf0"><title>2026-03-11</title></rect><rect x="465" y="74" width="10" height="10" rx="2" fill="#ebedf0"><title>2026-03-12</title></rect><rect x="465" y="87" width="10" height="10" rx="2" fill="#ebedf0"><title>2026-03-13</title></rect><rect x="465" y="100" width="10" height="10" rx="2" fill="#ebedf0"><title>2026-03-14</title></rect><rect x="478" y="22" width="10" height="10" rx="2" fill="#ebedf0"><title>2026-03-15</title></rect><rect x="478" y="35" width="10" height="10" rx="2" fill="#ebedf0"><title>2026-03-16</title></rect><rect x="478" y="48" width="10" height="10" rx="2" fill="#ebedf0"><title>2026-03-17</title></rect><rect x="478" y="61" width="10" height="10" rx="2" fill="#ebedf0"><title>2026-03-18</title></rect><rect x="478" y="74" width="10" height="10" rx="2" fill="#ebedf0"><title>2026-03-19</title></rect><rect x="478" y="87" width="10" height="10" rx="2" fill="#ebedf0"><title>2026-03-20</title></rect><rect x="478" y="100" width="10" height="10" rx="2" fill="#ebedf0"><title>2026-03-21</title></rect><rect x="491" y="22" width="10" height="10" rx="2" fill="#ebedf0"><title>2026-03-22</title></rect><rect x="491" y="35" width="10" height="10" rx="2" fill="#ebedf0"><title>2026-03-23</title></rect><rect x="491" y="48" width="10" height="10" rx="2" fill="#ebedf0"><title>2026-03-24</title></rect><rect x="491" y="61" width="10" height="10" rx="2" fill="#ebedf0"><title>2026-03-25</title></rect><rect x="491" y="74" width="10" height="10" rx="2" fill="#ebedf0"><title>2026-03-26</title></rect><rect x="491" y="87" width="10" height="10" rx="2" fill="#ebedf0"><title>2026-03-27</title></rect><rect x="491" y="100" width="10" height="10" rx="2" fill="#ebedf0"><title>2026-03-28</title></rect><rect x="504" y="22" width="10" height="10" rx="2" fill="#ebedf0"><title>2026-03-29</title></rect><rect x="504" y="35" width="10" height="10" rx="2" fill="#ebedf0"><title>2026-03-30</title></rect><rect x="504" y="48" width="10" height="10" rx="2" fill="#ebedf0"><title>2026-03-31</title></rect><rect x="504" y="61" width="10" height="10" rx="2" fill="#ebedf0"><title>2026-04-01</title></rect><rect x="504" y="74" width="10" height="10" rx="2" fill="#ebedf0"><title>2026-04-02</title></rect><rect x="504" y="87" width="10" height="10" rx="2" fill="#ebedf0"><title>2026-04-03</title></rect><rect x="504" y="100" width="10" height="10" rx="2" fill="#ebedf0"><title>2026-04-04</title></rect><rect x="517" y="22" width="10" height="10" rx="2" fill="#ebedf0"><title>2026-04-05</title></rect><rect x="517" y="35" width="10" height="10" rx="2" fill="#ebedf0"><title>2026-04-06</title></rect><rect x="517" y="48" width="10" height="10" rx="2" fill="#ebedf0"><title>2026-04-07</title></rect><rect x="517" y="61" width="10" height="10" rx="2" fill="#ebedf0"><title>2026-04-08</title></rect><rect x="517" y="74" width="10" height="10" rx="2" fill="#ebedf0"><title>2026-04-09</title></rect><rect x="517" y="87" width="10" height="10" rx="2" fill="#ebedf0"><title>2026-04-10</title></rect><rect x="517" y="100" width="10" height="10" rx="2" fill="#ebedf0"><title>2026-04-11</title></rect><rect x="530" y="22" width="10" height="10" rx="2" fill="#ebedf0"><title>2026-04-12</title></rect><rect x="530" y="35" width="10" height="10" rx="2" fill="#ebedf0"><title>2026-04-13</title></rect><rect x="530" y="48" width="10" height="10" rx="2" fill="#ebedf0"><title>2026-04-14</title></rect><rect x="530" y="61" width="10" height="10" rx="2" fill="#ebedf0"><title>2026-04-15</title></rect><rect x="530" y="74" width="10" height="10" rx="2" fill="#ebedf0"><title>2026-04-16</title></rect><rect x="530" y="87" width="10" height="10" rx="2" fill="#ebedf0"><title>2026-04-17</title></rect><rect x="530" y="100" width="10" height="10" rx="2" fill="#ebedf0"><title>2026-04-18</title></rect><rect x="543" y="22" width="10" height="10" rx="2" fill="#ebedf0"><title>2026-04-19</title></rect><rect x="543" y="35" width="10" height="10" rx="2" fill="#ebedf0"><title>2026-04-20</title></rect><rect x="543" y="48" width="10" height="10" rx="2" fill="#ebedf0"><title>2026-04-21</title></rect><rect x="543" y="61" width="10" height="10" rx="2" fill="#ebedf0"><title>2026-04-22</title></rect><rect x="543" y="74" width="10" height="10" rx="2" fill="#ebedf0"><title>2026-04-23</title></rect><rect x="543" y="87" width="10" height="10" rx="2" fill="#ebedf0"><title>2026-04-24</title></rect><rect x="543" y="100" width="10" height="10" rx="2" fill="#ebedf0"><title>2026-04-25</title></rect><rect x="556" y="22" width="10" height="10" rx="2" fill="#ebedf0"><title>2026-04-26</title></rect><rect x="556" y="35" width="10" height="10" rx="2" fill="#ebedf0"><title>2026-04-27</title></rect><rect x="556" y="48" width="10" height="10" rx="2" fill="#ebedf0"><title>2026-04-28</title></rect><rect x="556" y="61" width="10" height="10" rx="2" fill="#ebedf0"><title>2026-04-29</title></rect><rect x="556" y="74" width="10" height="10" rx="2" fill="#ebedf0"><title>2026-04-30</title></rect><rect x="556" y="87" width="10" height="10" rx="2" fill="#ebedf0"><title>2026-05-01</title></rect><rect x="556" y="100" width="10" height="10" rx="2" fill="#ebedf0"><title>2026-05-02</title></rect><rect x="569" y="22" width="10" height="10" rx="2" fill="#ebedf0"><title>2026-05-03</title></rect><rect x="569" y="35" width="10" height="10" rx="2" fill="#ebedf0"><title>2026-05-04</title></rect><rect x="569" y="48" width="10" height="10" rx="2" fill="#ebedf0"><title>2026-05-05</title></rect><rect x="569" y="61" width="10" height="10" rx="2" fill="#ebedf0"><title>2026-05-06</title></rect><rect x="569" y="74" width="10" height="10" rx="2" fill="#ebedf0"><title>2026-05-07</title></rect><rect x="569" y="87" width="10" height="10" rx="2" fill="#ebedf0"><title>2026-05-08</title></rect><rect x="569" y="100" width="10" height="10" rx="2" fill="#ebedf0"><title>2026-05-09</title></rect><rect x="582" y="22" width="10" height="10" rx="2" fill="#ebedf0"><title>2026-05-10</title></rect><rect x="582" y="35" width="10" height="10" rx="2" fill="#ebedf0"><title>2026-05-11</title></rect><rect x="582" y="48" width="10" height="10" rx="2" fill="#ebedf0"><title>2026-05-12</title></rect><rect x="582" y="61" width="10" height="10" rx="2" fill="#ebedf0"><title>2026-05-13</title></rect><rect x="582" y="74" width="10" height="10" rx="2" fill="#ebedf0"><title>2026-05-14</title></rect><rect x="582" y="87" width="10" height="10" rx="2" fill="#ebedf0"><title>2026-05-15</title></rect><rect x="582" y="100" width="10" height="10" rx="2" fill="#ebedf0"><title>2026-05-16</title></rect><rect x="595" y="22" width="10" height="10" rx="2" fill="#ebedf0"><title>2026-05-17</title></rect><rect x="595" y="35" width="10" height="10" rx="2" fill="#ebedf0"><title>2026-05-18</title></rect><rect x="595" y="48" width="10" height="10" rx="2" fill="#ebedf0"><title>2026-05-19</title></rect><rect x="595" y="61" width="10" height="10" rx="2" fill="#ebedf0"><title>2026-05-20</title></rect><rect x="595" y="74" width="10" height="10" rx="2" fill="#ebedf0"><title>2026-05-21</title></rect><rect x="595" y="87" width="10" height="10" rx="2" fill="#ebedf0"><title>2026-05-22</title></rect><rect x="595" y="100" width="10" height="10" rx="2" fill="#ebedf0"><title>2026-05-23</title></rect><rect x="608" y="22" width="10" height="10" rx="2" fill="#ebedf0"><title>2026-05-24</title></rect><rect x="608" y="35" width="10" height="10" rx="2" fill="#ebedf0"><title>2026-05-25</title></rect><rect x="608" y="48" width="10" height="10" rx="2" fill="#ebedf0"><title>2026-05-26</title></rect><rect x="608" y="61" width="10" height="10" rx="2" fill="#ebedf0"><title>2026-05-27</title></rect><rect x="608" y="74" width="10" height="10" rx="2" fill="#ebedf0"><title>2026-05-28</title></rect><rect x="608" y="87" width="10" height="10" rx="2" fill="#ebedf0"><title>2026-05-29</title></rect><rect x="608" y="100" width="10" height="10" rx="2" fill="#ebedf0"><title>2026-05-30</title></rect><rect x="621" y="22" width="10" height="10" rx="2" fill="#ebedf0"><title>2026-05-31</title></rect><rect x="621" y="35" width="10" height="10" rx="2" fill="#ebedf0"><title>2026-06-01</title></rect><rect x="621" y="48" width="10" height="10" rx="2" fill="#ebedf0"><title>2026-06-02</title></rect><rect x="621" y="61" width="10" height="10" rx="2" fill="#ebedf0"><title>2026-06-03</title></rect><rect x="621" y="74" width="10" height="10" rx="2" fill="#ebedf0"><title>2026-06-04</title></rect><rect x="621" y="87" width="10" height="10" rx="2" fill="#ebedf0"><title>2026-06-05</title></rect><rect x="621" y="100" width="10" height="10" rx="2" fill="#ebedf0"><title>2026-06-06</title></rect><rect x="634" y="22" width="10" height="10" rx="2" fill="#ebedf0"><title>2026-06-07</title></rect><rect x="634" y="35" width="10" height="10" rx="2" fill="#ebedf0"><title>2026-06-08</title></rect><rect x="634" y="48" width="10" height="10" rx="2" fill="#ebedf0"><title>2026-06-09</title></rect><rect x="634" y="61" width="10" height="10" rx="2" fill="#ebedf0"><title>2026-06-10</title></rect><rect x="634" y="74" width="10" height="10" rx="2" fill="#ebedf0"><title>2026-06-11</title></rect><rect x="634" y="87" width="10" height="10" rx="2" fill="#ebedf0"><title>2026-06-12</title></rect><rect x="634" y="100" width="10" height="10" rx="2" fill="#ebedf0"><title>2026-06-13</title></rect><rect x="647" y="22" width="10" height="10" rx="2" fill="#ebedf0"><title>2026-06-14</title></rect><rect x="647" y="35" width="10" height="10" rx="2" fill="#ebedf0"><title>2026-06-15</title></rect><rect x="647" y="48" width="10" height="10" rx="2" fill="#ebedf0"><title>2026-06-16</title></rect><rect x="647" y="61" width="10" height="10" rx="2" fill="#ebedf0"><title>2026-06-17</title></rect><rect x="647" y="74" width="10" height="10" rx="2" fill="#ebedf0"><title>2026-06-18</title></rect><rect x="647" y="87" width="10" height="10" rx="2" fill="#ebedf0"><title>2026-06-19</title></rect><rect x="647" y="100" width="10" height="10" rx="2" fill="#ebedf0"><title>2026-06-20</title></rect><rect x="660" y="22" width="10" height="10" rx="2" fill="#ebedf0"><title>2026-06-21</title></rect><rect x="660" y="35" width="10" height="10" rx="2" fill="#2da44e"><title>2026-06-22 — logged</title></rect><rect x="660" y="48" width="10" height="10" rx="2" fill="#2da44e"><title>2026-06-23 — logged</title></rect><rect x="660" y="61" width="10" height="10" rx="2" fill="#2da44e"><title>2026-06-24 — logged</title></rect><rect x="660" y="74" width="10" height="10" rx="2" fill="#2da44e"><title>2026-06-25 — logged</title></rect><rect x="660" y="87" width="10" height="10" rx="2" fill="#2da44e"><title>2026-06-26 — logged</title></rect><rect x="660" y="100" width="10" height="10" rx="2" fill="#ebedf0"><title>2026-06-27</title></rect><rect x="673" y="22" width="10" height="10" rx="2" fill="#ebedf0"><title>2026-06-28</title></rect><rect x="673" y="35" width="10" height="10" rx="2" fill="#2da44e"><title>2026-06-29 — logged</title></rect><rect x="673" y="48" width="10" height="10" rx="2" fill="#2da44e"><title>2026-06-30 — logged</title></rect><rect x="673" y="61" width="10" height="10" rx="2" fill="#ebedf0"><title>2026-07-01</title></rect><rect x="673" y="74" width="10" height="10" rx="2" fill="#2da44e"><title>2026-07-02 — logged</title></rect><rect x="673" y="87" width="10" height="10" rx="2" fill="#ebedf0"><title>2026-07-03</title></rect><rect x="673" y="100" width="10" height="10" rx="2" fill="#2da44e"><title>2026-07-04 — logged</title></rect><rect x="686" y="22" width="10" height="10" rx="2" fill="#ebedf0"><title>2026-07-05</title></rect><rect x="686" y="35" width="10" height="10" rx="2" fill="#ebedf0"><title>2026-07-06</title></rect><rect x="686" y="48" width="10" height="10" rx="2" fill="#ebedf0"><title>2026-07-07</title></rect><rect x="686" y="61" width="10" height="10" rx="2" fill="#ebedf0"><title>2026-07-08</title></rect><rect x="686" y="74" width="10" height="10" rx="2" fill="#2da44e"><title>2026-07-09 — logged</title></rect><rect x="686" y="87" width="10" height="10" rx="2" fill="#2da44e"><title>2026-07-10 — logged</title></rect><rect x="686" y="100" width="10" height="10" rx="2" fill="#ebedf0"><title>2026-07-11</title></rect><rect x="699" y="22" width="10" height="10" rx="2" fill="#ebedf0"><title>2026-07-12</title></rect><rect x="699" y="35" width="10" height="10" rx="2" fill="#2da44e"><title>2026-07-13 — logged</title></rect><rect x="699" y="48" width="10" height="10" rx="2" fill="#ebedf0"><title>2026-07-14</title></rect><rect x="699" y="61" width="10" height="10" rx="2" fill="#2da44e"><title>2026-07-15 — logged</title></rect><rect x="699" y="74" width="10" height="10" rx="2" fill="#ebedf0"><title>2026-07-16</title></rect><rect x="699" y="87" width="10" height="10" rx="2" fill="#2da44e"><title>2026-07-17 — logged</title></rect><rect x="699" y="100" width="10" height="10" rx="2" fill="#2da44e"><title>2026-07-18 — logged</title></rect><rect x="712" y="22" width="10" height="10" rx="2" fill="#ebedf0"><title>2026-07-19</title></rect><rect x="712" y="35" width="10" height="10" rx="2" fill="#ebedf0"><title>2026-07-20</title></rect><rect x="712" y="48" width="10" height="10" rx="2" fill="#2da44e"><title>2026-07-21 — logged</title></rect></svg>